<svg xmlns="http://www.w3.org/2000/svg" width="20" height="16.244" viewBox="0 0 20 16.244"><path d="M-2.056-11.574A8.811,8.811,0,0,0,0-13.693a8.217,8.217,0,0,1-2.36.634,4.088,4.088,0,0,0,1.8-2.259,8.07,8.07,0,0,1-2.6.99,4.089,4.089,0,0,0-2.995-1.294,4.1,4.1,0,0,0-4.1,4.1,4.627,4.627,0,0,0,.1.939A11.651,11.651,0,0,1-18.6-14.873a4.068,4.068,0,0,0-.558,2.069,4.1,4.1,0,0,0,1.827,3.414,4.128,4.128,0,0,1-1.853-.52v.051A4.1,4.1,0,0,0-15.9-5.838a4.334,4.334,0,0,1-1.079.14,5.166,5.166,0,0,1-.774-.063,4.106,4.106,0,0,0,3.833,2.843A8.209,8.209,0,0,1-19.01-1.167,8.483,8.483,0,0,1-20-1.218,11.583,11.583,0,0,0-13.706.622,11.582,11.582,0,0,0-2.043-11.041C-2.043-11.218-2.043-11.4-2.056-11.574Z" transform="translate(20 15.622)" fill="#326b6e"/></svg>