<svg xmlns="http://www.w3.org/2000/svg" width="535.026" height="99.027" viewBox="0 0 535.026 99.027"><g transform="translate(0 0)"><path d="M195.051,52.313c-.2.792-.462,1.649-.726,2.441a7.007,7.007,0,0,1-1.187,2.177,5.363,5.363,0,0,1-2.045,1.517,9.4,9.4,0,0,1-6.4.066,5.729,5.729,0,0,1-2.309-1.715,9.757,9.757,0,0,1-1.517-3.43,25.413,25.413,0,0,1-.528-5.541c0-.792,0-1.649.066-2.507s.2-1.781.33-2.639a14.905,14.905,0,0,1,.726-2.441,6.114,6.114,0,0,1,1.319-1.979,5.36,5.36,0,0,1,1.979-1.385,7.5,7.5,0,0,1,2.837-.528,8.326,8.326,0,0,1,3.034.528,6.414,6.414,0,0,1,1.979,1.451,7.094,7.094,0,0,1,1.253,2.045c.264.792.528,1.583.726,2.375v.132h.66V36.152h-.726l-.066.066-.462.462a1.268,1.268,0,0,1-.792.2,2.328,2.328,0,0,1-.924-.2c-.33-.132-.726-.264-1.121-.462-.4-.132-.858-.33-1.385-.462a7.357,7.357,0,0,0-1.781-.2,10.743,10.743,0,0,0-4.618.989,12.183,12.183,0,0,0-6.135,6.6,12.211,12.211,0,0,0-.858,4.618,10.81,10.81,0,0,0,1.055,5.013,14.228,14.228,0,0,0,2.639,3.76,10.916,10.916,0,0,0,3.694,2.441,10.987,10.987,0,0,0,6,.528c.594-.132,1.121-.264,1.649-.4.462-.132.924-.264,1.253-.4a2.272,2.272,0,0,1,1.781,0,1.541,1.541,0,0,1,.462.462l.066.066h.726V52.116h-.594Z" transform="translate(-60.03 -12.102)" fill="#8b8b8b"/><path d="M230.179,39.158a13.957,13.957,0,0,0-3.628-2.573,9.742,9.742,0,0,0-8.246,0,11.415,11.415,0,0,0-3.628,2.573,13.179,13.179,0,0,0-2.639,3.826,11.687,11.687,0,0,0-1.055,4.816,11.878,11.878,0,0,0,.858,4.552,12.348,12.348,0,0,0,2.375,3.892,11.363,11.363,0,0,0,3.628,2.7,10.45,10.45,0,0,0,4.552.989,9.115,9.115,0,0,0,4.42-1.055,11.1,11.1,0,0,0,3.562-2.7,12.348,12.348,0,0,0,2.375-3.892,11.785,11.785,0,0,0,.858-4.486,11.648,11.648,0,0,0-.989-4.816,10.56,10.56,0,0,0-2.441-3.826m-.528,8.642a27.58,27.58,0,0,1-.4,5.013A10.8,10.8,0,0,1,228,56.376a5.727,5.727,0,0,1-2.243,2.111,7.579,7.579,0,0,1-3.43.66,8.581,8.581,0,0,1-3.43-.66,5.727,5.727,0,0,1-2.243-2.111,9.809,9.809,0,0,1-1.253-3.562,27.58,27.58,0,0,1-.4-5.013,30.552,30.552,0,0,1,.264-4.288,10.183,10.183,0,0,1,1.121-3.628,5.906,5.906,0,0,1,2.243-2.507,7.85,7.85,0,0,1,7.388,0,6.367,6.367,0,0,1,2.243,2.507,12.293,12.293,0,0,1,1.121,3.628,30.552,30.552,0,0,1,.264,4.288" transform="translate(-71.805 -12.14)" fill="#8b8b8b"/><path d="M263.466,37.284h3.562V53.776L256.407,36.624v-.066h-7.124v.726h3.562v21.7h-3.562v.726H257.2v-.726h-3.562V38.867L266.9,60.108l.066.066h.858V37.284h3.562v-.726h-7.916Z" transform="translate(-84.84 -12.442)" fill="#8b8b8b"/><path d="M301.5,47.462a6.324,6.324,0,0,0-1.847-.989c-.594-.2-1.121-.4-1.517-.528l-3.892-1.253a16.512,16.512,0,0,1-1.649-.594,7.534,7.534,0,0,1-1.451-.792,4.551,4.551,0,0,1-1.055-1.187,3.213,3.213,0,0,1-.4-1.649,3.917,3.917,0,0,1,.528-2.045,4.8,4.8,0,0,1,1.253-1.319,4.989,4.989,0,0,1,1.715-.726,7.964,7.964,0,0,1,1.649-.2,5.266,5.266,0,0,1,2.375.462,5.49,5.49,0,0,1,1.715,1.253,7.406,7.406,0,0,1,1.187,1.847,9.138,9.138,0,0,1,.66,2.177v.132h.66V35.918h-.66l-.066.066a1.355,1.355,0,0,1-.4.528,1.611,1.611,0,0,1-.462.066,1.756,1.756,0,0,1-.792-.2c-.264-.132-.594-.264-.99-.462-.4-.132-.792-.33-1.319-.462a8.645,8.645,0,0,0-4.816.33,7.6,7.6,0,0,0-2.309,1.451,5.5,5.5,0,0,0-1.451,2.177,7.667,7.667,0,0,0-.528,2.771,4.772,4.772,0,0,0,1.385,3.628,10.031,10.031,0,0,0,4.024,2.177l3.694,1.121a11.892,11.892,0,0,1,1.385.528,5.628,5.628,0,0,1,1.385.924,5.452,5.452,0,0,1,1.055,1.319,4.016,4.016,0,0,1,.4,1.847,5.052,5.052,0,0,1-.264,1.649,5.629,5.629,0,0,1-.858,1.649A4.564,4.564,0,0,1,298.2,58.28a6.583,6.583,0,0,1-2.7.528h-1.319a5.021,5.021,0,0,1-1.385-.2,6.73,6.73,0,0,1-1.451-.594,6.893,6.893,0,0,1-1.385-1.121,6.755,6.755,0,0,1-1.187-1.913,12.544,12.544,0,0,1-.924-2.9v-.132h-.66v7.19h.726l.066-.066a2.868,2.868,0,0,1,.264-.462.853.853,0,0,1,.528-.132,3.284,3.284,0,0,1,1.253.264,11.368,11.368,0,0,0,1.385.462c.4.132.726.2.99.264a4.454,4.454,0,0,0,.924.132,4.992,4.992,0,0,0,.99.066h1.187a8.165,8.165,0,0,0,3.43-.66,7.932,7.932,0,0,0,2.639-1.715,7.6,7.6,0,0,0,1.649-2.441,7.372,7.372,0,0,0,.594-2.9,5.075,5.075,0,0,0-.66-2.771,10.24,10.24,0,0,0-1.649-1.715" transform="translate(-97.739 -12)" fill="#8b8b8b"/><path d="M336.845,42.659h.594v-6.2H317.583v6.2h.594v-.132a11.061,11.061,0,0,1,1.253-3.034,5.013,5.013,0,0,1,1.517-1.583,3.9,3.9,0,0,1,1.583-.594,11.848,11.848,0,0,1,1.451-.132H325.7V58.821h-3.562v.726h10.621v-.726h-3.562V37.184h1.715a13.115,13.115,0,0,1,1.451.132,3.9,3.9,0,0,1,1.583.594,5.013,5.013,0,0,1,1.517,1.583,10.241,10.241,0,0,1,1.253,3.034Z" transform="translate(-108.085 -12.408)" fill="#8b8b8b"/><path d="M358.017,35.69l-.066-.132h-.989L348.32,58.58h-2.837v.726h7.19V58.58h-3.5l3.232-8.642h7.256L362.9,58.58h-3.5v.726h10.225V58.58h-2.9ZM359.4,49.213h-6.6l3.3-8.774Z" transform="translate(-117.581 -12.102)" fill="#8b8b8b"/><path d="M396.832,37.284h3.562V53.776L389.773,36.624l-.066-.066h-7.124v.726h3.562v21.7h-3.562v.726H390.5v-.726h-3.562V38.867l13.325,21.241.066.066h.858V37.284h3.562v-.726h-7.916Z" transform="translate(-130.207 -12.442)" fill="#8b8b8b"/><path d="M439.251,52.313c-.2.792-.462,1.649-.726,2.441a7.007,7.007,0,0,1-1.187,2.177,5.363,5.363,0,0,1-2.045,1.517,9.4,9.4,0,0,1-6.4.066,5.729,5.729,0,0,1-2.309-1.715,9.758,9.758,0,0,1-1.517-3.43,25.412,25.412,0,0,1-.528-5.541c0-.792,0-1.649.066-2.507s.2-1.781.33-2.639a14.909,14.909,0,0,1,.726-2.441,6.113,6.113,0,0,1,1.319-1.979,5.36,5.36,0,0,1,1.979-1.385,7.5,7.5,0,0,1,2.837-.528,8.326,8.326,0,0,1,3.034.528,6.415,6.415,0,0,1,1.979,1.451,7.1,7.1,0,0,1,1.253,2.045c.264.792.528,1.583.726,2.375v.132h.66V36.152h-.726l-.066.066-.462.462a1.268,1.268,0,0,1-.792.2,2.328,2.328,0,0,1-.924-.2c-.33-.132-.726-.264-1.121-.462-.4-.132-.858-.33-1.385-.462a7.358,7.358,0,0,0-1.781-.2,10.743,10.743,0,0,0-4.618.989,12.183,12.183,0,0,0-6.135,6.6,12.211,12.211,0,0,0-.858,4.618,10.809,10.809,0,0,0,1.055,5.013,14.229,14.229,0,0,0,2.639,3.76,10.917,10.917,0,0,0,3.694,2.441,10.987,10.987,0,0,0,6,.528c.594-.132,1.121-.264,1.649-.4.462-.132.924-.264,1.253-.4a2.272,2.272,0,0,1,1.781,0,1.542,1.542,0,0,1,.462.462l.066.066h.726V52.116h-.594Z" transform="translate(-143.14 -12.102)" fill="#8b8b8b"/><path d="M472.511,52.522a9.329,9.329,0,0,1-.462,1.847,7.04,7.04,0,0,1-1.055,2.111,7.936,7.936,0,0,1-1.847,1.781,5.317,5.317,0,0,1-2.837.726h-5.937V47.64h2.441a3.561,3.561,0,0,1,1.781.4,2.878,2.878,0,0,1,1.121,1.055,5.284,5.284,0,0,1,.66,1.517c.132.594.33,1.187.462,1.781v.132h.66V42.231h-.66v.132a19.568,19.568,0,0,1-.726,2.309,4.54,4.54,0,0,1-.858,1.385,2.142,2.142,0,0,1-1.187.66,6.639,6.639,0,0,1-1.781.2h-1.913V37.284h5.145a6.873,6.873,0,0,1,2.177.33,3.915,3.915,0,0,1,1.517.924,4.858,4.858,0,0,1,1.121,1.583,11.514,11.514,0,0,1,.858,2.177l.066.132h.594V36.558H453.183v.726h3.562V58.921h-3.562v.726h19.988V52.324h-.66Z" transform="translate(-154.235 -12.442)" fill="#8b8b8b"/><path d="M514.308,53.578,508.5,36.624l-.066-.066h-7.454v.726h3.562v21.7h-3.562v.726H508.9v-.726h-3.562V38.273l7.52,21.769,7.586-21.967V58.987h-3.562v.726h10.687v-.726h-3.562v-21.7h3.562v-.726h-7.388Z" transform="translate(-170.503 -12.442)" fill="#8b8b8b"/><path d="M548.13,66.558a1.961,1.961,0,0,0-1.319.528,1.842,1.842,0,0,0-.528,1.319,1.961,1.961,0,0,0,.528,1.319,1.842,1.842,0,0,0,1.319.528,1.961,1.961,0,0,0,1.319-.528,1.842,1.842,0,0,0,.528-1.319,1.961,1.961,0,0,0-.528-1.319,2.1,2.1,0,0,0-1.319-.528" transform="translate(-185.92 -22.652)" fill="#8b8b8b"/><path d="M588.951,52.313c-.2.792-.462,1.649-.726,2.441a7.007,7.007,0,0,1-1.187,2.177,5.363,5.363,0,0,1-2.045,1.517,9.4,9.4,0,0,1-6.4.066,5.729,5.729,0,0,1-2.309-1.715,9.759,9.759,0,0,1-1.517-3.43,25.413,25.413,0,0,1-.528-5.541c0-.792,0-1.649.066-2.507s.2-1.781.33-2.639a14.9,14.9,0,0,1,.726-2.441,6.114,6.114,0,0,1,1.319-1.979,5.361,5.361,0,0,1,1.979-1.385,7.5,7.5,0,0,1,2.837-.528,8.326,8.326,0,0,1,3.034.528,6.414,6.414,0,0,1,1.979,1.451,7.1,7.1,0,0,1,1.253,2.045,16.316,16.316,0,0,1,.726,2.375v.132h.66V36.152h-.726l-.066.066a3.048,3.048,0,0,1-.462.462,1.268,1.268,0,0,1-.792.2,2.328,2.328,0,0,1-.924-.2c-.33-.132-.726-.264-1.121-.462a6.813,6.813,0,0,0-1.385-.462,7.357,7.357,0,0,0-1.781-.2,10.743,10.743,0,0,0-4.618.989,12.183,12.183,0,0,0-6.135,6.6,12.211,12.211,0,0,0-.858,4.618,10.809,10.809,0,0,0,1.055,5.013,14.227,14.227,0,0,0,2.639,3.76,10.916,10.916,0,0,0,3.694,2.441,10.987,10.987,0,0,0,6,.528c.594-.132,1.121-.264,1.649-.4.462-.132.923-.264,1.253-.4a2.272,2.272,0,0,1,1.781,0,1.542,1.542,0,0,1,.462.462l.066.066h.726V52.116h-.594Z" transform="translate(-194.088 -12.102)" fill="#8b8b8b"/><path d="M617,37.284h3.562V47.509H610.141V37.284H613.7v-.726H603.083v.726h3.562v21.7h-3.562v.726H613.7v-.726h-3.562V48.234h10.423V58.987H617v.726h10.621v-.726H624.06v-21.7h3.562v-.726H617Z" transform="translate(-205.251 -12.442)" fill="#8b8b8b"/><path d="M661.911,52.522a9.323,9.323,0,0,1-.462,1.847,7.039,7.039,0,0,1-1.055,2.111,7.938,7.938,0,0,1-1.847,1.781,5.317,5.317,0,0,1-2.837.726h-5.937V47.64h2.441a3.56,3.56,0,0,1,1.781.4,2.878,2.878,0,0,1,1.121,1.055,5.281,5.281,0,0,1,.66,1.517c.132.594.33,1.187.462,1.781v.132h.66V42.231h-.66v.132a19.574,19.574,0,0,1-.726,2.309,4.54,4.54,0,0,1-.858,1.385,2.142,2.142,0,0,1-1.187.66,6.638,6.638,0,0,1-1.781.2h-1.913V37.284h5.145a6.873,6.873,0,0,1,2.177.33,3.915,3.915,0,0,1,1.517.924,4.857,4.857,0,0,1,1.121,1.583,11.514,11.514,0,0,1,.858,2.177l.066.132h.594V36.558H642.583v.726h3.562V58.921h-3.562v.726H662.5V52.324h-.66Z" transform="translate(-218.695 -12.442)" fill="#8b8b8b"/><path d="M690.832,37.284h3.562V53.776L683.707,36.624v-.066h-7.124v.726h3.562v21.7h-3.562v.726H684.5v-.726h-3.562V38.867l13.325,21.241v.066h.924V37.284h3.562v-.726h-7.916Z" transform="translate(-230.266 -12.442)" fill="#8b8b8b"/><path d="M715.5,67.379a2.686,2.686,0,0,0-.924-.792,2.278,2.278,0,0,0-1.187-.33,2.09,2.09,0,0,0-1.517.594,1.9,1.9,0,0,0-.594,1.385,1.579,1.579,0,0,0,.66,1.385,1.972,1.972,0,0,0,1.253.462,1.818,1.818,0,0,0,1.385-.726,2.508,2.508,0,0,1,.4,1.451,3.407,3.407,0,0,1-.132.726,3.179,3.179,0,0,1-.462.989,6.49,6.49,0,0,1-.924,1.187,7.668,7.668,0,0,1-1.517,1.253l-.132.066.462.66.132-.066a6.316,6.316,0,0,0,1.121-.924,6,6,0,0,0,1.187-1.385,8.605,8.605,0,0,0,.924-1.715,4.732,4.732,0,0,0,.4-1.913,4.143,4.143,0,0,0-.2-1.253,1.662,1.662,0,0,0-.33-1.055" transform="translate(-242.076 -22.55)" fill="#8b8b8b"/><path d="M747.008,53.578,741.2,36.624v-.066h-7.52v.726h3.562v21.7h-3.562v.726H741.6v-.726h-3.562V38.273l7.388,21.373.2.4,7.586-21.967V58.987h-3.562v.726h10.621v-.726h-3.562v-21.7h3.562v-.726h-7.388Z" transform="translate(-249.699 -12.442)" fill="#8b8b8b"/><path d="M798.775,44.58a8.776,8.776,0,0,0-1.385-3.1,9.459,9.459,0,0,0-2.375-2.507,11.153,11.153,0,0,0-3.43-1.715c-.462-.132-.924-.264-1.253-.4a8.248,8.248,0,0,0-1.253-.2c-.462-.066-.924-.066-1.451-.132a17.591,17.591,0,0,0-2.639,0h-.923c-.33,0-.594.066-.924.066h-7.058v.726h3.562V58.961h-3.562v.726h6.6a5.674,5.674,0,0,1,1.055.066c.4,0,.726.066,1.121.066h3.034a10.945,10.945,0,0,0,1.583-.132,11.186,11.186,0,0,0,1.451-.264,12.831,12.831,0,0,0,1.451-.528,15.148,15.148,0,0,0,2.639-1.517,10.124,10.124,0,0,0,2.111-2.309,14.328,14.328,0,0,0,1.451-3.034,13.75,13.75,0,0,0,.528-3.826,9.339,9.339,0,0,0-.33-3.628m-3.562,3.628a18.276,18.276,0,0,1-.4,3.958,12.086,12.086,0,0,1-1.385,3.5,6.764,6.764,0,0,1-1.517,1.781,6.06,6.06,0,0,1-1.781,1.055,7.1,7.1,0,0,1-2.045.462c-.726.066-1.385.132-2.177.132h-1.583c-.462,0-.792-.066-1.121-.066v-21.7c.33,0,.726-.066,1.121-.066h1.451a11.148,11.148,0,0,1,4.486.792,7.043,7.043,0,0,1,2.9,2.243,8.991,8.991,0,0,1,1.583,3.5,17.834,17.834,0,0,1,.462,4.42" transform="translate(-264.13 -12.417)" fill="#8b8b8b"/><path d="M177.983,108.532V96.658h4.947a3.4,3.4,0,0,1,2.573,1.187,4.267,4.267,0,0,1,.99,2.639,3.76,3.76,0,0,1-.264,1.451,4.776,4.776,0,0,1-.726,1.253,3.4,3.4,0,0,1-2.573,1.187h-3.562v4.288h-1.385Zm1.451-5.607h3.5a1.826,1.826,0,0,0,.858-.2,2.583,2.583,0,0,0,.66-.528,1.5,1.5,0,0,0,.4-.792,2.245,2.245,0,0,0,.132-.924,2.647,2.647,0,0,0-.2-.989,2.281,2.281,0,0,0-.462-.792,2.583,2.583,0,0,0-.66-.528,1.826,1.826,0,0,0-.858-.2h-3.364Z" transform="translate(-60.574 -32.896)" fill="#8b8b8b"/><path d="M198.783,108.532V96.658H200.3v10.555h6.663v1.319Z" transform="translate(-67.653 -32.896)" fill="#8b8b8b"/><path d="M216.983,108.532l4.882-11.874h1.253L228,108.532h-1.583l-1.385-3.5h-5.079l-1.385,3.5Zm5.475-10.159-2.243,5.475h4.354Z" transform="translate(-73.847 -32.896)" fill="#8b8b8b"/><path d="M247.365,99.165a3.771,3.771,0,0,0-.528-.462,7.193,7.193,0,0,0-.726-.4,3.781,3.781,0,0,0-.924-.264,5.127,5.127,0,0,0-1.055-.132,3.447,3.447,0,0,0-2.045.528,1.622,1.622,0,0,0-.66,1.451,1.407,1.407,0,0,0,.2.792,1.557,1.557,0,0,0,.594.528,7.676,7.676,0,0,0,.99.4c.4.132.858.2,1.385.33a9.864,9.864,0,0,1,1.649.462,4.445,4.445,0,0,1,1.253.66,3.472,3.472,0,0,1,.792.924,2.888,2.888,0,0,1,.264,1.385,3.145,3.145,0,0,1-.33,1.451,2.824,2.824,0,0,1-.924,1.055,4.4,4.4,0,0,1-1.385.594,7.191,7.191,0,0,1-1.715.2,8.088,8.088,0,0,1-2.573-.4,7.521,7.521,0,0,1-2.243-1.253l.726-1.253a3.5,3.5,0,0,0,.726.594,6.725,6.725,0,0,0,.99.528c.4.132.726.264,1.187.4a8.121,8.121,0,0,0,1.319.132,3.383,3.383,0,0,0,1.979-.462,1.554,1.554,0,0,0,.726-1.385,1.826,1.826,0,0,0-.2-.858,2.971,2.971,0,0,0-.66-.594,3.91,3.91,0,0,0-1.055-.462c-.462-.132-.924-.264-1.451-.4-.594-.132-1.121-.33-1.583-.462a5.752,5.752,0,0,1-1.121-.594,2.96,2.96,0,0,1-.726-.858,3.151,3.151,0,0,1-.264-1.187,3.665,3.665,0,0,1,.33-1.517,3.626,3.626,0,0,1,.858-1.121,3.377,3.377,0,0,1,1.385-.66,7.191,7.191,0,0,1,1.715-.2,5.81,5.81,0,0,1,2.177.4,6.161,6.161,0,0,1,1.715.989Z" transform="translate(-81.471 -32.896)" fill="#8b8b8b"/><path d="M269.38,97.978h-4.09v10.555h-1.517V97.978h-4.09V96.658h9.7Z" transform="translate(-88.38 -32.896)" fill="#8b8b8b"/><rect width="1.517" height="11.874" transform="translate(186.014 63.762)" fill="#8b8b8b"/><path d="M292.583,102.495a5.713,5.713,0,0,1,.4-2.111,5.623,5.623,0,0,1,1.121-1.913,5.389,5.389,0,0,1,1.781-1.385,5.691,5.691,0,0,1,2.375-.528,5,5,0,0,1,2.7.726,4.6,4.6,0,0,1,1.715,1.847l-1.187.792a2.56,2.56,0,0,0-.66-.924,3.1,3.1,0,0,0-.792-.594,3.815,3.815,0,0,0-.924-.33,4.455,4.455,0,0,0-.924-.132,3.634,3.634,0,0,0-3.034,1.451,4.709,4.709,0,0,0-.792,1.517,4.794,4.794,0,0,0-.264,1.649,5.656,5.656,0,0,0,.33,1.781,4.312,4.312,0,0,0,.858,1.517,4.06,4.06,0,0,0,1.319,1.055,3.576,3.576,0,0,0,1.649.4,5.092,5.092,0,0,0,.99-.132,2.313,2.313,0,0,0,.924-.4,4.234,4.234,0,0,0,.858-.66,4.681,4.681,0,0,0,.66-.924l1.253.66a3.743,3.743,0,0,1-.792,1.187,3.916,3.916,0,0,1-1.187.858,6.5,6.5,0,0,1-2.771.726,5.1,5.1,0,0,1-2.243-.528,5.918,5.918,0,0,1-1.781-1.385,7.516,7.516,0,0,1-1.187-1.979,6.7,6.7,0,0,1-.4-2.243" transform="translate(-99.577 -32.862)" fill="#8b8b8b"/><path d="M332.06,103.669v1.187h-1.979v2.111h-1.319v-2.111h-1.979v-1.187h1.979v-2.111h1.319v2.111Z" transform="translate(-111.216 -34.564)" fill="#8b8b8b"/><path d="M354.683,108.532V96.658h5.079a3.4,3.4,0,0,1,2.573,1.187,4.266,4.266,0,0,1,.99,2.639,3.736,3.736,0,0,1-.2,1.187,3.175,3.175,0,0,1-.528,1.055,2.274,2.274,0,0,1-.792.792,3.031,3.031,0,0,1-1.055.462l2.9,4.552h-1.715l-2.7-4.288h-3.166v4.288Zm1.517-5.607h3.628a1.826,1.826,0,0,0,.858-.2,2.583,2.583,0,0,0,.66-.528,1.5,1.5,0,0,0,.4-.792,2.245,2.245,0,0,0,.132-.924,2.107,2.107,0,0,0-.2-.924,4.919,4.919,0,0,0-.462-.792,2.583,2.583,0,0,0-.66-.528,1.826,1.826,0,0,0-.858-.2h-3.5Z" transform="translate(-120.712 -32.896)" fill="#8b8b8b"/><path d="M384.731,107.213v1.319h-8.048V96.658H384.6v1.319h-6.4V101.8h5.607v1.253H378.2v4.09h6.531Z" transform="translate(-128.199 -32.896)" fill="#8b8b8b"/><path d="M396.083,102.495a5.713,5.713,0,0,1,.4-2.111,5.623,5.623,0,0,1,1.121-1.913,5.389,5.389,0,0,1,1.781-1.385,5.691,5.691,0,0,1,2.375-.528,5,5,0,0,1,2.7.726,4.6,4.6,0,0,1,1.715,1.847l-1.187.792a2.56,2.56,0,0,0-.66-.924,3.1,3.1,0,0,0-.792-.594,3.814,3.814,0,0,0-.924-.33,4.455,4.455,0,0,0-.924-.132,3.634,3.634,0,0,0-3.034,1.451,4.709,4.709,0,0,0-.792,1.517,4.794,4.794,0,0,0-.264,1.649,5.656,5.656,0,0,0,.33,1.781,4.313,4.313,0,0,0,.858,1.517,4.06,4.06,0,0,0,1.319,1.055,3.576,3.576,0,0,0,1.649.4,5.092,5.092,0,0,0,.989-.132,2.313,2.313,0,0,0,.924-.4,4.235,4.235,0,0,0,.858-.66,4.683,4.683,0,0,0,.66-.924l1.253.66a3.743,3.743,0,0,1-.792,1.187,3.916,3.916,0,0,1-1.187.858,6.5,6.5,0,0,1-2.771.726,5.1,5.1,0,0,1-2.243-.528,5.918,5.918,0,0,1-1.781-1.385,7.518,7.518,0,0,1-1.187-1.979,6.7,6.7,0,0,1-.4-2.243" transform="translate(-134.802 -32.862)" fill="#8b8b8b"/><path d="M423.89,108.53a5.392,5.392,0,0,1-2.309-.528,5.918,5.918,0,0,1-1.781-1.385,6.946,6.946,0,0,1-1.121-1.913,6.424,6.424,0,0,1-.4-2.243,6.8,6.8,0,0,1,.4-2.309,5.2,5.2,0,0,1,1.187-1.913,6.938,6.938,0,0,1,1.781-1.319,5.062,5.062,0,0,1,2.243-.462,5.392,5.392,0,0,1,2.309.528,5.918,5.918,0,0,1,1.781,1.385,6.948,6.948,0,0,1,1.121,1.913,6.333,6.333,0,0,1,.4,2.177,6.8,6.8,0,0,1-.4,2.309,5.2,5.2,0,0,1-1.187,1.913A5.966,5.966,0,0,1,426.133,108a4.5,4.5,0,0,1-2.243.528m-4.09-6a5.557,5.557,0,0,0,.264,1.781,4.313,4.313,0,0,0,.858,1.517,3.473,3.473,0,0,0,1.319,1.055,3.577,3.577,0,0,0,1.649.4,3.652,3.652,0,0,0,1.715-.4,3.958,3.958,0,0,0,1.253-1.055,5.515,5.515,0,0,0,.792-1.517,4.919,4.919,0,0,0,.264-1.715,5.557,5.557,0,0,0-.264-1.781,4.313,4.313,0,0,0-.858-1.517,4.06,4.06,0,0,0-1.319-1.055,3.576,3.576,0,0,0-1.649-.4,3.652,3.652,0,0,0-1.715.4,3.261,3.261,0,0,0-1.253,1.055,5.514,5.514,0,0,0-.792,1.517,7.72,7.72,0,0,0-.264,1.715" transform="translate(-142.357 -32.828)" fill="#8b8b8b"/><path d="M445.1,99.529v9.1h-1.517V96.758h1.187l7.388,9.235V96.758h1.517v11.874h-1.253Z" transform="translate(-150.968 -32.93)" fill="#8b8b8b"/><path d="M474.665,99.165a3.772,3.772,0,0,0-.528-.462,7.2,7.2,0,0,0-.726-.4,3.781,3.781,0,0,0-.924-.264,5.127,5.127,0,0,0-1.055-.132,3.447,3.447,0,0,0-2.045.528,1.622,1.622,0,0,0-.66,1.451,1.407,1.407,0,0,0,.2.792,1.557,1.557,0,0,0,.594.528,7.675,7.675,0,0,0,.99.4c.4.132.858.2,1.385.33a9.865,9.865,0,0,1,1.649.462,4.445,4.445,0,0,1,1.253.66,3.472,3.472,0,0,1,.792.924,2.888,2.888,0,0,1,.264,1.385,3.145,3.145,0,0,1-.33,1.451,2.824,2.824,0,0,1-.924,1.055,4.4,4.4,0,0,1-1.385.594,7.191,7.191,0,0,1-1.715.2,8.088,8.088,0,0,1-2.573-.4,7.521,7.521,0,0,1-2.243-1.253l.726-1.253a3.5,3.5,0,0,0,.726.594c.33.2.594.33.99.528a12.459,12.459,0,0,0,1.187.4,8.121,8.121,0,0,0,1.319.132,3.383,3.383,0,0,0,1.979-.462,1.554,1.554,0,0,0,.726-1.385,1.826,1.826,0,0,0-.2-.858,2.972,2.972,0,0,0-.66-.594,3.91,3.91,0,0,0-1.055-.462c-.462-.132-.924-.264-1.451-.4-.594-.132-1.121-.33-1.583-.462a5.752,5.752,0,0,1-1.121-.594,2.96,2.96,0,0,1-.726-.858,3.151,3.151,0,0,1-.264-1.187,3.665,3.665,0,0,1,.33-1.517,3.626,3.626,0,0,1,.858-1.121,3.377,3.377,0,0,1,1.385-.66,7.19,7.19,0,0,1,1.715-.2,5.81,5.81,0,0,1,2.177.4,6.161,6.161,0,0,1,1.715.989Z" transform="translate(-158.829 -32.896)" fill="#8b8b8b"/><path d="M496.68,97.978h-4.09v10.555h-1.517V97.978h-4.09V96.658h9.7Z" transform="translate(-165.738 -32.896)" fill="#8b8b8b"/><path d="M509.383,108.532V96.658h5.079a3.4,3.4,0,0,1,2.573,1.187,4.266,4.266,0,0,1,.989,2.639,3.735,3.735,0,0,1-.2,1.187,3.174,3.174,0,0,1-.528,1.055,2.274,2.274,0,0,1-.792.792,3.031,3.031,0,0,1-1.055.462l2.9,4.552h-1.649l-2.7-4.288h-3.166v4.288Zm1.451-5.607h3.628a1.826,1.826,0,0,0,.858-.2,2.582,2.582,0,0,0,.66-.528,1.505,1.505,0,0,0,.4-.792,2.246,2.246,0,0,0,.132-.924,2.107,2.107,0,0,0-.2-.924,4.919,4.919,0,0,0-.462-.792,2.581,2.581,0,0,0-.66-.528,1.826,1.826,0,0,0-.858-.2h-3.5Z" transform="translate(-173.362 -32.896)" fill="#8b8b8b"/><path d="M536.03,107.279a3.47,3.47,0,0,0,1.715-.4,3.414,3.414,0,0,0,1.121-1.055,3.977,3.977,0,0,0,.594-1.451,7.192,7.192,0,0,0,.2-1.715v-6h1.517v6a8.857,8.857,0,0,1-.264,2.309,5.643,5.643,0,0,1-.858,1.913,4.467,4.467,0,0,1-1.583,1.319,5.161,5.161,0,0,1-2.309.462,5.257,5.257,0,0,1-2.375-.528,4.467,4.467,0,0,1-1.583-1.319,5.643,5.643,0,0,1-.858-1.913,8.358,8.358,0,0,1-.264-2.243v-6H532.6v6a7.192,7.192,0,0,0,.2,1.715,4.789,4.789,0,0,0,.594,1.451,3.453,3.453,0,0,0,1.121,1.055,2.205,2.205,0,0,0,1.517.4" transform="translate(-180.747 -32.896)" fill="#8b8b8b"/><path d="M554.183,102.495a5.714,5.714,0,0,1,.4-2.111,5.623,5.623,0,0,1,1.121-1.913,5.389,5.389,0,0,1,1.781-1.385,5.691,5.691,0,0,1,2.375-.528,5,5,0,0,1,2.7.726,5.106,5.106,0,0,1,1.715,1.847l-1.187.792a2.561,2.561,0,0,0-.66-.924,3.1,3.1,0,0,0-.792-.594,3.815,3.815,0,0,0-.924-.33,4.455,4.455,0,0,0-.923-.132,3.634,3.634,0,0,0-3.034,1.451,5.514,5.514,0,0,0-.792,1.517,4.793,4.793,0,0,0-.264,1.649,5.656,5.656,0,0,0,.33,1.781,4.313,4.313,0,0,0,.858,1.517,4.06,4.06,0,0,0,1.319,1.055,3.577,3.577,0,0,0,1.649.4,5.092,5.092,0,0,0,.99-.132,2.313,2.313,0,0,0,.924-.4,4.234,4.234,0,0,0,.858-.66,4.682,4.682,0,0,0,.66-.924l1.253.66a3.743,3.743,0,0,1-.792,1.187,3.916,3.916,0,0,1-1.187.858,6.5,6.5,0,0,1-2.771.726,5.1,5.1,0,0,1-2.243-.528,5.92,5.92,0,0,1-1.781-1.385,7.518,7.518,0,0,1-1.187-1.979,6.7,6.7,0,0,1-.4-2.243" transform="translate(-188.609 -32.862)" fill="#8b8b8b"/><path d="M585.58,97.978h-4.09v10.555h-1.517V97.978h-4.09V96.658h9.7Z" transform="translate(-195.994 -32.896)" fill="#8b8b8b"/><rect width="1.517" height="11.874" transform="translate(394.665 63.762)" fill="#8b8b8b"/><path d="M609.532,96.658l3.958,10.027,3.892-10.027h1.583l-4.882,11.874h-1.319l-4.882-11.874Z" transform="translate(-206.885 -32.896)" fill="#8b8b8b"/><path d="M640.231,107.213v1.319h-8.048V96.658H640.1v1.319h-6.4V101.8h5.607v1.253H633.7v4.09h6.531Z" transform="translate(-215.155 -32.896)" fill="#8b8b8b"/><path d="M670.665,99.165a3.773,3.773,0,0,0-.528-.462,7.2,7.2,0,0,0-.726-.4,3.781,3.781,0,0,0-.924-.264,5.127,5.127,0,0,0-1.055-.132,3.447,3.447,0,0,0-2.045.528,1.622,1.622,0,0,0-.66,1.451,1.407,1.407,0,0,0,.2.792,1.557,1.557,0,0,0,.594.528,7.682,7.682,0,0,0,.99.4c.4.132.858.2,1.385.33a9.862,9.862,0,0,1,1.649.462,4.444,4.444,0,0,1,1.253.66,3.471,3.471,0,0,1,.792.924,2.888,2.888,0,0,1,.264,1.385,3.145,3.145,0,0,1-.33,1.451,2.823,2.823,0,0,1-.924,1.055,4.4,4.4,0,0,1-1.385.594,7.191,7.191,0,0,1-1.715.2,8.088,8.088,0,0,1-2.573-.4,7.522,7.522,0,0,1-2.243-1.253l.726-1.253a3.5,3.5,0,0,0,.726.594c.33.2.594.33.99.528a12.455,12.455,0,0,0,1.187.4,8.121,8.121,0,0,0,1.319.132,3.383,3.383,0,0,0,1.979-.462,1.554,1.554,0,0,0,.726-1.385,1.826,1.826,0,0,0-.2-.858,2.972,2.972,0,0,0-.66-.594,3.91,3.91,0,0,0-1.055-.462c-.462-.132-.924-.264-1.451-.4-.594-.132-1.121-.33-1.583-.462a5.751,5.751,0,0,1-1.121-.594,2.961,2.961,0,0,1-.726-.858,3.152,3.152,0,0,1-.264-1.187,3.664,3.664,0,0,1,.33-1.517,3.626,3.626,0,0,1,.858-1.121,3.376,3.376,0,0,1,1.385-.66,7.191,7.191,0,0,1,1.715-.2,5.811,5.811,0,0,1,2.177.4,6.161,6.161,0,0,1,1.715.989Z" transform="translate(-225.535 -32.896)" fill="#8b8b8b"/><path d="M689.63,107.279a3.47,3.47,0,0,0,1.715-.4,3.413,3.413,0,0,0,1.121-1.055,5.6,5.6,0,0,0,.594-1.451,7.189,7.189,0,0,0,.2-1.715v-6h1.517v6a8.854,8.854,0,0,1-.264,2.309,5.643,5.643,0,0,1-.858,1.913,4.468,4.468,0,0,1-1.583,1.319,5.161,5.161,0,0,1-2.309.462,5.256,5.256,0,0,1-2.375-.528,4.467,4.467,0,0,1-1.583-1.319,5.643,5.643,0,0,1-.858-1.913,8.358,8.358,0,0,1-.264-2.243v-6H686.2v6a7.189,7.189,0,0,0,.2,1.715,4.789,4.789,0,0,0,.594,1.451,3.453,3.453,0,0,0,1.121,1.055,2.324,2.324,0,0,0,1.517.4" transform="translate(-233.023 -32.896)" fill="#8b8b8b"/><path d="M708.983,108.532V96.658h5.079a3.4,3.4,0,0,1,2.573,1.187,4.266,4.266,0,0,1,.99,2.639,3.736,3.736,0,0,1-.2,1.187,3.174,3.174,0,0,1-.528,1.055,2.274,2.274,0,0,1-.792.792,3.031,3.031,0,0,1-1.055.462l2.9,4.552h-1.715l-2.7-4.288h-3.166v4.288Zm1.517-5.607h3.628a1.826,1.826,0,0,0,.858-.2,2.583,2.583,0,0,0,.66-.528,1.5,1.5,0,0,0,.4-.792,2.245,2.245,0,0,0,.132-.924,2.107,2.107,0,0,0-.2-.924,4.919,4.919,0,0,0-.462-.792,2.583,2.583,0,0,0-.66-.528,1.826,1.826,0,0,0-.858-.2h-3.5Z" transform="translate(-241.293 -32.896)" fill="#8b8b8b"/><path d="M738.952,106.915a4.715,4.715,0,0,1-5.805,1.187,5.919,5.919,0,0,1-1.781-1.385,9.333,9.333,0,0,1-1.187-1.913,6.422,6.422,0,0,1-.4-2.243,6.793,6.793,0,0,1,.4-2.309,5.949,5.949,0,0,1,2.968-3.232,4.971,4.971,0,0,1,2.177-.462,5.317,5.317,0,0,1,2.837.726,5.106,5.106,0,0,1,1.715,1.847l-1.187.792a3.587,3.587,0,0,0-1.451-1.517,4.03,4.03,0,0,0-1.979-.528,3.576,3.576,0,0,0-1.649.4,3.83,3.83,0,0,0-1.253,1.055,5.515,5.515,0,0,0-.792,1.517,5.3,5.3,0,0,0-.264,1.781,5.037,5.037,0,0,0,.33,1.781,5.664,5.664,0,0,0,.858,1.517,3.176,3.176,0,0,0,1.319.989,3.577,3.577,0,0,0,1.649.4,4.446,4.446,0,0,0,3.5-1.847v-1.649H736.38v-1.121h3.826v5.937h-1.253Z" transform="translate(-248.372 -32.862)" fill="#8b8b8b"/><path d="M762.331,107.213v1.319h-8.048V96.658H762.2v1.319h-6.465V101.8h5.607v1.253h-5.607v4.09h6.6Z" transform="translate(-256.71 -32.896)" fill="#8b8b8b"/><path d="M774.783,108.532V96.658h5.079a3.4,3.4,0,0,1,2.573,1.187,4.267,4.267,0,0,1,.99,2.639,3.735,3.735,0,0,1-.2,1.187,3.174,3.174,0,0,1-.528,1.055,2.274,2.274,0,0,1-.792.792,3.03,3.03,0,0,1-1.056.462l2.9,4.552h-1.715l-2.7-4.288h-3.166v4.288Zm1.517-5.607h3.628a1.826,1.826,0,0,0,.858-.2,2.583,2.583,0,0,0,.66-.528,1.5,1.5,0,0,0,.4-.792,2.245,2.245,0,0,0,.132-.924,2.107,2.107,0,0,0-.2-.924,4.924,4.924,0,0,0-.462-.792,2.581,2.581,0,0,0-.66-.528,1.826,1.826,0,0,0-.858-.2h-3.5Z" transform="translate(-263.687 -32.896)" fill="#8b8b8b"/><path d="M795.632,96.658l3.628,6.2,3.628-6.2h1.649l-4.552,7.52v4.354h-1.517v-4.354l-4.486-7.52Z" transform="translate(-270.222 -32.896)" fill="#8b8b8b"/><path d="M60.7,10.9s.931.233,2.7.652c.419.139.931.186,1.49.372.513.187,1.118.373,1.724.606s1.3.42,2,.745,1.444.652,2.189,1.025a40.963,40.963,0,0,1,10.2,6.894,44.445,44.445,0,0,1,9.689,13A43.865,43.865,0,0,1,94.935,53.34a26.969,26.969,0,0,1-.14,2.7L94.7,57.392l-.047.7-.14.792a36.219,36.219,0,0,1-1.117,5.31,28.751,28.751,0,0,1-.885,2.841c-.373.885-.745,1.817-1.071,2.7a20.021,20.021,0,0,1-1.3,2.655A17.986,17.986,0,0,1,88.647,75a42.565,42.565,0,0,1-7.965,9.456A44.206,44.206,0,0,1,69.875,91.4,45.567,45.567,0,0,1,57.158,94.89a47.339,47.339,0,0,1-13.322-.559l-.978-.233-.7-.187-1.4-.373a12.414,12.414,0,0,1-1.49-.419l-1.677-.606-1.677-.606-.838-.327-.745-.372c-1.025-.466-2-1.025-2.981-1.491a45.484,45.484,0,0,1-10.388-8.105A45.957,45.957,0,0,1,13.7,71.04a44.582,44.582,0,0,1-3.68-11.832,41.673,41.673,0,0,1-.14-11.785A43.121,43.121,0,0,1,10.9,41.881l.187-.792.186-.606.42-1.211a25.207,25.207,0,0,1,.885-2.422,42.577,42.577,0,0,1,2.329-4.845c.42-.745.838-1.491,1.258-2.189.466-.7.978-1.351,1.444-2.05a44.11,44.11,0,0,1,6.335-7.034,43.456,43.456,0,0,1,13.974-8.2,40.875,40.875,0,0,1,12.065-2.422c.838-.047,1.677-.047,2.422-.094.745,0,1.49.047,2.143.094s1.258.093,1.817.093a11.167,11.167,0,0,1,1.491.233c1.863.326,2.841.466,2.841.466m0,0s-.978-.14-2.748-.373c-.466-.047-.931-.14-1.491-.186-.559,0-1.164-.047-1.817-.094-.652,0-1.351-.093-2.143-.046-.745.046-1.537.093-2.422.186A36.617,36.617,0,0,0,25.762,22.6a37.971,37.971,0,0,0-4.938,7.22c-.326.652-.652,1.351-1.025,2-.279.7-.559,1.444-.838,2.143a38.675,38.675,0,0,0-1.35,4.332c-.187.7-.327,1.63-.466,2.422l-.233,1.257-.093.652c-.046.14.047-.14,0-.047v.513a32.845,32.845,0,0,0-.14,4.8,35.972,35.972,0,0,0,1.584,9.6c.28.792.513,1.538.792,2.329s.652,1.491.978,2.282l.513,1.118.606,1.071c.42.7.792,1.444,1.211,2.143A41.209,41.209,0,0,0,28.7,74.022l1.91,1.584a19.853,19.853,0,0,0,2,1.444l1.025.745c.326.233.7.419,1.071.652.745.42,1.4.839,2.143,1.211.745.327,1.537.652,2.236,1.025l.559.28.559.186,1.071.373,1.071.419c.327.14.885.234,1.351.373l1.4.373.7.187.373.093.186.047h.093c-.093,0,.373.093-.186-.047a41.321,41.321,0,0,0,9.875.652c.838-.047,1.63-.187,2.468-.28a9.374,9.374,0,0,0,1.211-.187l1.211-.279a22.711,22.711,0,0,0,2.422-.559l2.375-.745A40.523,40.523,0,0,0,74.626,77c.7-.466,1.3-1.024,1.957-1.49l.978-.745.885-.838C79,73.37,79.7,72.81,80.216,72.2c.559-.606,1.071-1.211,1.63-1.863a19.719,19.719,0,0,0,1.491-1.957,19.378,19.378,0,0,0,1.4-2l1.257-2.1c.42-.7.652-1.4,1.025-2.1a32.088,32.088,0,0,0,1.77-4.7l.093-.326.047-.14.046-.093c0-.047-.046.233,0,.093l.14-.559.28-1.164c.14-.792.419-1.538.513-2.329A36.193,36.193,0,0,0,80.5,21.944a36.045,36.045,0,0,0-9.689-7.36l-2.143-1.071c-.7-.326-1.351-.512-2-.745-.606-.234-1.211-.466-1.724-.652s-1.025-.28-1.491-.42C61.63,11.184,60.7,10.9,60.7,10.9" transform="translate(-3.241 -3.41)" fill="#62c6ca"/><path d="M30.182,17.13s.7-.512,2.05-1.49c.373-.233.652-.513,1.164-.838.559-.327,1.164-.7,1.817-1.071s1.351-.839,2.1-1.211c.745-.327,1.491-.7,2.329-1.072A40.438,40.438,0,0,1,52.121,8.14,41.1,41.1,0,0,1,85.194,19.6a23.071,23.071,0,0,1,1.77,1.91l.885.978.42.466.186.233.047.047.093.139.186.234a33.455,33.455,0,0,1,2.795,4.145,25.75,25.75,0,0,1,1.4,2.469c.373.838.745,1.63,1.165,2.468a24.422,24.422,0,0,1,.978,2.562,25.365,25.365,0,0,1,.838,2.655,40.222,40.222,0,0,1,1.4,11.086,42.109,42.109,0,0,1-1.77,11.226A41.506,41.506,0,0,1,90.6,70.559a44.657,44.657,0,0,1-7.733,8.478l-2.236,1.63A26.236,26.236,0,0,1,78.253,82.2a41.466,41.466,0,0,1-5.17,2.609,40.649,40.649,0,0,1-10.9,2.7A42.967,42.967,0,0,1,51.236,87,37.726,37.726,0,0,1,26.688,70.419a36.739,36.739,0,0,1-4.1-31.023,34.85,34.85,0,0,1,5.031-9.969c.466-.606.885-1.211,1.3-1.77s.885-.978,1.3-1.444c.42-.42.792-.838,1.118-1.211a9.223,9.223,0,0,1,1.024-.931c1.211-1.118,1.864-1.677,1.864-1.677Zm4.052,5.217-1.77,1.77c-.28.28-.606.606-.932.978s-.652.838-1.024,1.258c-.373.466-.792.931-1.164,1.49s-.745,1.165-1.165,1.817a34.984,34.984,0,0,0-4.332,9.969A35.854,35.854,0,0,0,23.1,53.557,35.16,35.16,0,0,0,29.2,68.51c.373.606.931,1.164,1.4,1.77l.745.885.373.466c.046.093-.047-.047,0,0l.046.047.094.093.186.186a33.35,33.35,0,0,0,3.261,3.028,33.932,33.932,0,0,0,7.779,4.8,34.807,34.807,0,0,0,8.99,2.515,36.052,36.052,0,0,0,9.5-.093,34.628,34.628,0,0,0,9.13-2.841,34.331,34.331,0,0,0,4.053-2.375,15.514,15.514,0,0,0,1.956-1.4l1.91-1.584a37.507,37.507,0,0,0,5.962-7.36,36.531,36.531,0,0,0,3.54-8.617,33.089,33.089,0,0,0,.885-9.037,37.208,37.208,0,0,0-1.677-8.571,14.836,14.836,0,0,0-.792-2,14.218,14.218,0,0,0-.885-1.91c-.326-.6-.652-1.21-.978-1.863-.326-.606-.7-1.071-1.071-1.631a34.587,34.587,0,0,0-2.655-3.447l-.186-.233-.093-.093-.047-.047c-.047-.046.28.326.093.14l-.373-.326-.7-.7a19.019,19.019,0,0,0-1.4-1.351,31.424,31.424,0,0,0-12.717-6.568,30.982,30.982,0,0,0-11.971-.419A28.138,28.138,0,0,0,44.9,22.86c-.559.279-1.071.559-1.583.838-.466.279-.792.559-1.165.792s-.7.466-1.024.652a8.524,8.524,0,0,0-1.025.792c-1.257,1.025-1.956,1.584-1.956,1.584Z" transform="translate(-7.101 -2.696)" fill="#b3dfde"/><path d="M19.074,13.317s.885-.7,2.562-2c.42-.326.885-.7,1.4-1.071C23.593,9.87,24.2,9.5,24.85,9.031c.652-.42,1.351-.931,2.143-1.4.792-.42,1.63-.885,2.515-1.351.466-.233.885-.513,1.35-.745s.978-.42,1.491-.652c1.025-.466,2.1-1.024,3.261-1.444s2.375-.838,3.633-1.257c1.3-.373,2.655-.7,4.052-1.071A46.609,46.609,0,0,1,62.861.973,43.762,43.762,0,0,1,83.5,12.2c.792.7,1.444,1.537,2.189,2.329l1.072,1.211.512.606.187.233.046.094.094.139.233.327a49.963,49.963,0,0,1,3.4,5.31,46.781,46.781,0,0,1,4.8,12.483,54.006,54.006,0,0,1,1.3,13.416,60.69,60.69,0,0,1-2,13.509L94.3,65.162c-.326,1.118-.885,2.143-1.3,3.214l-.652,1.631c-.233.513-.513,1.024-.792,1.537-.559,1.025-1.071,2.1-1.677,3.075L87.967,77.6c-.6,1.024-1.4,1.863-2.1,2.841a25.445,25.445,0,0,1-2.282,2.749l-1.211,1.3-.606.652-.326.327-.14.186-.093.093c-.047.047.046,0-.187.14l-2.562,2.236a24,24,0,0,1-2.841,2.189l-1.537,1.071a14.017,14.017,0,0,1-1.538.978l-3.027,1.771a50.076,50.076,0,0,1-13.788,4.378,53.179,53.179,0,0,1-14.394.047A51.65,51.65,0,0,1,27.785,94.6a46.6,46.6,0,0,1-11.552-7.407,50.4,50.4,0,0,1-4.752-4.7l-.279-.279-.14-.14-.047-.093-.186-.233-.466-.606-.885-1.211-.885-1.165a14.71,14.71,0,0,1-.885-1.257c-.559-.932-1.165-1.91-1.724-2.842-.28-.466-.559-.931-.792-1.4l-.652-1.4c-.42-.931-.885-1.863-1.3-2.794-.373-.932-.652-1.91-.978-2.888A36.578,36.578,0,0,1,.768,60.5c-.233-.931-.279-1.91-.419-2.842q-.141-1.4-.28-2.794A46.918,46.918,0,0,1,3.237,35.489c.559-1.35,1.117-2.608,1.677-3.819.606-1.164,1.211-2.329,1.817-3.4.559-1.071,1.3-2.05,1.91-2.981.28-.466.606-.931.885-1.4l.978-1.258c.606-.792,1.211-1.584,1.724-2.282.559-.7,1.164-1.3,1.677-1.864s1.025-1.117,1.444-1.583c.466-.466.931-.885,1.3-1.258,1.584-1.537,2.422-2.329,2.422-2.329m.513.652s-.792.792-2.329,2.282A15.892,15.892,0,0,0,16,17.509c-.42.512-.838,1.071-1.351,1.63A23.785,23.785,0,0,0,13.158,21.1c-.466.745-.978,1.537-1.49,2.375-.233.42-.513.838-.792,1.3-.233.466-.466.932-.7,1.444-.419.978-.978,1.957-1.351,3.075s-.792,2.236-1.211,3.447c-.326,1.211-.559,2.515-.885,3.819a47.256,47.256,0,0,0,.186,17.515A52.572,52.572,0,0,0,9.8,63.438c.326.792.652,1.538.978,2.329.42.745.792,1.491,1.211,2.282a39.043,39.043,0,0,0,2.655,4.286,7.75,7.75,0,0,0,.838,1.117l.931,1.165.932,1.164.466.606c.14.186-.14-.14-.094-.093l.047.046.14.14.233.233A44.332,44.332,0,0,0,22.1,80.58a47.714,47.714,0,0,0,9.409,6.382,47.254,47.254,0,0,0,11.179,3.82,48.138,48.138,0,0,0,12.158.6l3.075-.419c1.024-.093,2.05-.42,3.074-.606l1.538-.326c.512-.14.978-.327,1.49-.466.978-.327,2-.606,3.028-.978l2.935-1.211a13.712,13.712,0,0,0,1.444-.652l1.4-.745A45.217,45.217,0,0,0,78.465,82.4l2.422-2a17.99,17.99,0,0,0,2.376-2.236,26.4,26.4,0,0,0,2.189-2.422l2-2.608A43.044,43.044,0,0,0,93.045,61.3a40.031,40.031,0,0,0,1.491-12.809c-.047-1.072-.233-2.1-.326-3.168-.047-.513-.094-1.025-.187-1.584L93.65,42.2c-.233-1.025-.419-2.05-.745-3.028s-.652-1.957-.978-2.935a29.843,29.843,0,0,0-1.211-2.795,20.429,20.429,0,0,0-1.351-2.655c-.513-.838-.978-1.677-1.491-2.561-.512-.838-1.117-1.538-1.63-2.282a44.6,44.6,0,0,0-3.726-4.565l-.233-.28-.14-.14-.047-.093c-.046-.047.187.233.047.093l-.513-.466-.978-.978c-.652-.606-1.257-1.3-1.957-1.864A53.238,53.238,0,0,0,61.23,7.494,49.262,49.262,0,0,0,43.856,4.746q-2.026.14-3.913.279c-1.257.233-2.422.466-3.587.652-1.164.233-2.236.606-3.261.885-.513.14-1.025.327-1.537.466-.466.186-.932.419-1.4.606-.885.419-1.77.792-2.561,1.117-.792.373-1.491.838-2.143,1.211s-1.257.745-1.817,1.071-1.024.745-1.444,1.025c-1.723,1.211-2.608,1.91-2.608,1.91" fill="#58a7aa"/><path d="M59.87,15.378s.7.094,1.957.234a21.582,21.582,0,0,1,2.375.419,9.9,9.9,0,0,1,1.491.373c.512.186,1.071.326,1.677.513a32.168,32.168,0,0,1,8.1,3.866,36.047,36.047,0,0,1,8.851,8.244A33.932,33.932,0,0,1,88,35.268c.28.606.559,1.165.792,1.771s.419,1.257.652,1.91a36.01,36.01,0,0,1,1.072,4.006c.139.7.186,1.4.326,2.143l.14,1.071.046.559c.047-.233-.046.42-.046.373v.373a20.378,20.378,0,0,1,0,4.146c-.094.838-.14,1.723-.28,2.515l-.42,2.375a30.765,30.765,0,0,1-1.444,4.752,33.314,33.314,0,0,1-5.17,8.943,36.461,36.461,0,0,1-3.726,3.866,31.12,31.12,0,0,1-4.378,3.354,38.419,38.419,0,0,1-4.938,2.608,18.161,18.161,0,0,1-2.655.978,26.67,26.67,0,0,1-2.749.792c-.931.187-1.863.42-2.794.559-.932.186-1.91.186-2.842.279a39.169,39.169,0,0,1-5.729,0l-.606-.093h-.187l-.233-.047-.513-.093-1.024-.14-.513-.093-.233-.047-.373-.093L48.6,81.663l-1.583-.419-.792-.233-.7-.233-2.655-1.071a26.333,26.333,0,0,1-2.562-1.3,20.718,20.718,0,0,1-2.422-1.444,40.077,40.077,0,0,1-4.425-3.447,33.222,33.222,0,0,1-3.68-4.052A35.589,35.589,0,0,1,26.8,64.988,33.7,33.7,0,0,1,23.3,55.3a32.267,32.267,0,0,1-.419-9.642,34.386,34.386,0,0,1,.745-4.472l.046-.279.047-.14v-.047c0,.047.093-.606.046-.373l.14-.419.28-.885.28-.838c.093-.28.186-.559.326-.931a26.55,26.55,0,0,1,1.77-4.006c.327-.606.652-1.164.978-1.724.373-.559.745-1.071,1.118-1.63a34.606,34.606,0,0,1,4.7-5.5,35.481,35.481,0,0,1,10.108-6.568,32.569,32.569,0,0,1,8.664-2.375,17.31,17.31,0,0,0,1.724-.233c.559-.047,1.071-.047,1.537-.094a13.973,13.973,0,0,1,2.422,0c1.351.187,2.05.233,2.05.233m-.14,1.258s-.652,0-1.91-.047a14.165,14.165,0,0,0-2.329.094c-.466.046-.931.046-1.444.139s-1.071.187-1.63.28a26.8,26.8,0,0,0-16.211,9.782A27.594,27.594,0,0,0,30.9,38.389c-.14.559-.186,1.165-.279,1.724-.047.559-.187,1.258-.187,1.724a29.889,29.889,0,0,0,0,3.54A25.522,25.522,0,0,0,31.875,52.5a27.468,27.468,0,0,0,3.447,6.661,29.608,29.608,0,0,0,5.263,5.543,28.54,28.54,0,0,0,6.754,3.866,28.319,28.319,0,0,0,3.726,1.118,27.37,27.37,0,0,0,3.912.652,29.344,29.344,0,0,0,7.826-.419,26.532,26.532,0,0,0,13.509-7.174,28.124,28.124,0,0,0,4.565-5.962,26.763,26.763,0,0,0,2.655-6.754,29.483,29.483,0,0,0,.652-3.54,10.425,10.425,0,0,0,.093-1.724c0-.559.093-1.164.047-1.723A27.075,27.075,0,0,0,74.17,22.365,26.869,26.869,0,0,0,66.9,18.22q-.838-.28-1.537-.559c-.513-.139-.978-.233-1.4-.372a13.277,13.277,0,0,0-2.282-.466c-1.3-.093-1.957-.186-1.957-.186" transform="translate(-7.723 -5.136)" fill="#b4d0a2"/></g></svg>