<svg xmlns="http://www.w3.org/2000/svg" width="143.623" height="146.119" viewBox="0 0 143.623 146.119"><g transform="translate(0)"><path d="M85.035,11.325s1.374.344,3.987.963c.618.205,1.374.274,2.2.549.756.275,1.65.55,2.543.894s1.924.619,2.955,1.1,2.131.963,3.231,1.513A60.443,60.443,0,0,1,115,26.516a65.581,65.581,0,0,1,14.3,19.176,64.725,64.725,0,0,1,6.255,28.249,39.794,39.794,0,0,1-.206,3.986l-.137,1.993-.069,1.031-.206,1.169a53.444,53.444,0,0,1-1.649,7.836,42.423,42.423,0,0,1-1.306,4.192c-.55,1.306-1.1,2.681-1.581,3.987a29.542,29.542,0,0,1-1.924,3.918,26.539,26.539,0,0,1-2.2,3.849,62.806,62.806,0,0,1-11.753,13.953A65.229,65.229,0,0,1,98.575,130.1a67.237,67.237,0,0,1-18.765,5.155,69.851,69.851,0,0,1-19.657-.824l-1.443-.344-1.031-.275-2.063-.55a18.315,18.315,0,0,1-2.2-.618l-2.474-.894-2.474-.894-1.237-.482-1.1-.549c-1.513-.688-2.956-1.513-4.4-2.2a67.113,67.113,0,0,1-15.328-11.96,67.813,67.813,0,0,1-10.723-15.6A65.784,65.784,0,0,1,10.254,82.6a61.49,61.49,0,0,1-.206-17.389,63.627,63.627,0,0,1,1.512-8.179l.275-1.168.274-.894.619-1.787a37.2,37.2,0,0,1,1.305-3.574,62.825,62.825,0,0,1,3.437-7.148c.619-1.1,1.237-2.2,1.856-3.231.687-1.031,1.443-1.993,2.131-3.024A65.087,65.087,0,0,1,30.8,25.827a64.122,64.122,0,0,1,20.62-12.1,60.313,60.313,0,0,1,17.8-3.573c1.237-.069,2.474-.069,3.574-.138,1.1,0,2.2.069,3.161.138s1.856.137,2.681.137a16.478,16.478,0,0,1,2.2.344c2.749.481,4.192.687,4.192.687m0,0s-1.444-.206-4.055-.55c-.687-.069-1.374-.206-2.2-.274-.824,0-1.718-.069-2.681-.138-.962,0-1.993-.137-3.161-.068-1.1.068-2.268.137-3.574.274A54.03,54.03,0,0,0,33.485,28.577,56.027,56.027,0,0,0,26.2,39.231c-.481.963-.963,1.993-1.513,2.955-.412,1.032-.824,2.131-1.237,3.162a57.068,57.068,0,0,0-1.992,6.392c-.275,1.031-.482,2.405-.688,3.574l-.344,1.855-.137.963c-.068.206.069-.206,0-.069v.756a48.464,48.464,0,0,0-.206,7.079,53.078,53.078,0,0,0,2.337,14.159c.413,1.169.756,2.269,1.169,3.437s.962,2.2,1.443,3.368l.756,1.65.894,1.581c.619,1.031,1.169,2.131,1.787,3.161a60.805,60.805,0,0,0,9.348,11.2l2.818,2.337a29.293,29.293,0,0,0,2.955,2.131l1.513,1.1c.481.344,1.031.618,1.581.962,1.1.619,2.062,1.238,3.161,1.787,1.1.482,2.268.963,3.3,1.513l.825.413.824.274,1.581.55,1.581.618c.482.206,1.306.345,1.993.55l2.062.55,1.032.275.55.137.274.069H64c-.137,0,.55.137-.274-.069a60.971,60.971,0,0,0,14.571.963c1.237-.069,2.405-.275,3.642-.413a13.834,13.834,0,0,0,1.787-.275l1.787-.412a33.511,33.511,0,0,0,3.574-.825l3.505-1.1a59.794,59.794,0,0,0,12.991-6.737c1.032-.687,1.925-1.512,2.887-2.2l1.443-1.1,1.306-1.237c.824-.824,1.855-1.65,2.612-2.543.824-.894,1.581-1.787,2.405-2.749a29.1,29.1,0,0,0,2.2-2.887,28.592,28.592,0,0,0,2.063-2.955q.927-1.548,1.855-3.093c.619-1.031.963-2.062,1.513-3.093a47.346,47.346,0,0,0,2.612-6.942l.137-.481.069-.206.068-.137c0-.069-.068.344,0,.137l.206-.824.413-1.718c.206-1.169.618-2.269.756-3.437a53.4,53.4,0,0,0-13.884-45.776,53.186,53.186,0,0,0-14.3-10.86l-3.161-1.581c-1.031-.481-1.993-.755-2.955-1.1-.894-.345-1.787-.688-2.543-.963s-1.513-.413-2.2-.619c-2.681-.755-4.055-1.168-4.055-1.168" transform="translate(-0.254 -0.267)" fill="#62c6ca"/><path d="M34.612,21.51s1.031-.755,3.024-2.2c.55-.344.962-.756,1.718-1.237.824-.482,1.718-1.032,2.681-1.581s1.993-1.238,3.092-1.787c1.1-.482,2.2-1.032,3.437-1.582A59.667,59.667,0,0,1,66.985,8.245a60.646,60.646,0,0,1,48.8,16.908,34.043,34.043,0,0,1,2.612,2.818l1.306,1.444.619.687.274.344.069.069.137.205.274.345a49.364,49.364,0,0,1,4.124,6.117,38,38,0,0,1,2.062,3.643c.55,1.237,1.1,2.405,1.719,3.642a36.032,36.032,0,0,1,1.443,3.781,37.425,37.425,0,0,1,1.237,3.918,59.35,59.35,0,0,1,2.062,16.358,62.133,62.133,0,0,1-2.612,16.565,61.243,61.243,0,0,1-7.355,15.258,65.893,65.893,0,0,1-11.41,12.51l-3.3,2.405a38.713,38.713,0,0,1-3.505,2.268,61.184,61.184,0,0,1-7.629,3.85,59.979,59.979,0,0,1-16.084,3.986,63.4,63.4,0,0,1-16.152-.756,55.666,55.666,0,0,1-36.222-24.468,54.211,54.211,0,0,1-6.048-45.775,51.423,51.423,0,0,1,7.423-14.709c.687-.894,1.305-1.787,1.924-2.612s1.306-1.443,1.924-2.131c.619-.619,1.169-1.237,1.65-1.787a13.608,13.608,0,0,1,1.512-1.374c1.787-1.65,2.75-2.474,2.75-2.474Zm5.979,7.7L37.98,31.82c-.413.413-.894.894-1.375,1.444s-.962,1.237-1.512,1.856c-.55.687-1.169,1.374-1.718,2.2s-1.1,1.719-1.719,2.681a51.62,51.62,0,0,0-6.392,14.709,52.9,52.9,0,0,0-1.1,20.551,51.88,51.88,0,0,0,9,22.063c.55.894,1.374,1.718,2.062,2.612l1.1,1.306.55.687c.068.137-.069-.069,0,0l.068.069.138.137.274.274a49.209,49.209,0,0,0,4.811,4.468,50.068,50.068,0,0,0,11.479,7.079,51.36,51.36,0,0,0,13.265,3.711,53.2,53.2,0,0,0,14.021-.137,51.1,51.1,0,0,0,13.471-4.192,50.658,50.658,0,0,0,5.98-3.505,22.891,22.891,0,0,0,2.886-2.063l2.819-2.337a55.343,55.343,0,0,0,8.8-10.86,53.9,53.9,0,0,0,5.224-12.715,48.824,48.824,0,0,0,1.305-13.334,54.9,54.9,0,0,0-2.474-12.647,21.892,21.892,0,0,0-1.168-2.955,20.978,20.978,0,0,0-1.306-2.819c-.481-.893-.962-1.786-1.443-2.749-.481-.894-1.031-1.581-1.581-2.406a51.035,51.035,0,0,0-3.918-5.086l-.274-.344-.137-.137-.069-.069c-.069-.068.413.481.137.206l-.55-.481-1.031-1.031a28.063,28.063,0,0,0-2.062-1.993,46.368,46.368,0,0,0-18.765-9.692A45.715,45.715,0,0,0,69.116,25.7a41.519,41.519,0,0,0-12.785,4.261c-.824.412-1.581.824-2.336,1.237-.688.412-1.169.824-1.719,1.168s-1.031.687-1.512.963A12.577,12.577,0,0,0,49.251,34.5c-1.855,1.513-2.886,2.337-2.886,2.337Z" transform="translate(-0.556 -0.211)" fill="#b3dfde"/><path d="M28.145,19.649s1.306-1.031,3.781-2.955c.619-.481,1.306-1.031,2.062-1.581.825-.55,1.719-1.1,2.681-1.787.963-.619,1.993-1.374,3.162-2.062,1.168-.619,2.405-1.306,3.711-1.993.687-.344,1.305-.756,1.992-1.1s1.444-.619,2.2-.963c1.513-.687,3.093-1.512,4.811-2.131s3.505-1.237,5.361-1.855c1.924-.55,3.918-1.031,5.979-1.581a68.774,68.774,0,0,1,28.868-.206A64.573,64.573,0,0,1,123.2,18c1.168,1.031,2.131,2.268,3.23,3.436l1.582,1.787.755.894.275.344.068.138.138.205.344.482a73.723,73.723,0,0,1,5.017,7.836,69.027,69.027,0,0,1,7.08,18.42,79.688,79.688,0,0,1,1.924,19.8A89.55,89.55,0,0,1,140.66,91.27l-1.512,4.879c-.481,1.65-1.306,3.161-1.924,4.742l-.963,2.406c-.344.756-.756,1.512-1.168,2.268-.825,1.513-1.581,3.093-2.474,4.537l-2.819,4.4c-.893,1.512-2.062,2.749-3.092,4.192a37.546,37.546,0,0,1-3.368,4.056l-1.787,1.924-.894.962-.481.482-.206.275-.137.137c-.069.069.068,0-.275.206l-3.781,3.3a35.417,35.417,0,0,1-4.192,3.23l-2.268,1.581a20.682,20.682,0,0,1-2.269,1.443l-4.467,2.613a73.89,73.89,0,0,1-20.345,6.46A78.469,78.469,0,0,1,61,145.43a76.212,76.212,0,0,1-20-5.842,68.756,68.756,0,0,1-17.046-10.929,74.368,74.368,0,0,1-7.011-6.942l-.412-.412-.206-.206-.069-.137-.274-.344-.687-.894-1.306-1.787-1.306-1.719a21.7,21.7,0,0,1-1.305-1.855c-.825-1.375-1.719-2.818-2.543-4.193-.413-.687-.824-1.374-1.169-2.062L6.7,106.046c-.619-1.374-1.306-2.749-1.924-4.123-.55-1.375-.963-2.818-1.443-4.261a53.973,53.973,0,0,1-2.2-8.386C.789,87.9.721,86.458.515,85.083Q.308,83.021.1,80.96A69.23,69.23,0,0,1,4.776,52.366c.824-1.992,1.649-3.849,2.474-5.636.894-1.718,1.787-3.437,2.681-5.018.824-1.581,1.924-3.024,2.818-4.4.413-.687.894-1.374,1.306-2.062L15.5,33.4c.894-1.168,1.787-2.337,2.543-3.368.824-1.031,1.718-1.924,2.474-2.75s1.513-1.649,2.131-2.336c.687-.688,1.374-1.306,1.924-1.856,2.337-2.268,3.574-3.437,3.574-3.437m.756.963s-1.168,1.168-3.437,3.368a23.449,23.449,0,0,0-1.855,1.856c-.619.755-1.237,1.581-1.993,2.405a35.1,35.1,0,0,0-2.2,2.887c-.687,1.1-1.443,2.268-2.2,3.505-.344.619-.756,1.237-1.169,1.924-.344.687-.687,1.375-1.031,2.131-.618,1.443-1.444,2.887-1.993,4.537s-1.168,3.3-1.787,5.086c-.481,1.787-.824,3.711-1.305,5.636a69.728,69.728,0,0,0,.274,25.844,77.573,77.573,0,0,0,4.261,13.815c.481,1.169.963,2.269,1.444,3.437.619,1.1,1.168,2.2,1.787,3.368a57.61,57.61,0,0,0,3.918,6.324,11.435,11.435,0,0,0,1.237,1.649l1.374,1.719L25.6,111.82l.687.894c.206.274-.206-.206-.138-.137l.069.068.206.206.344.344a65.414,65.414,0,0,0,5.842,5.7A70.4,70.4,0,0,0,46.5,128.316a69.726,69.726,0,0,0,16.5,5.637,71.029,71.029,0,0,0,17.939.893l4.537-.618c1.512-.137,3.024-.619,4.536-.894l2.269-.481c.755-.206,1.443-.482,2.2-.687,1.444-.482,2.956-.894,4.468-1.443l4.33-1.787a20.232,20.232,0,0,0,2.131-.963l2.062-1.1c2.681-1.237,5.568-3.436,8.316-5.292l3.574-2.955a26.545,26.545,0,0,0,3.506-3.3,38.955,38.955,0,0,0,3.23-3.574l2.956-3.849a63.514,63.514,0,0,0,8.247-17.458,59.068,59.068,0,0,0,2.2-18.9c-.069-1.582-.344-3.093-.481-4.674-.069-.756-.138-1.513-.275-2.337l-.55-2.268c-.344-1.513-.618-3.024-1.1-4.468s-.963-2.887-1.444-4.331a44.034,44.034,0,0,0-1.787-4.124,30.144,30.144,0,0,0-1.993-3.918c-.756-1.237-1.443-2.474-2.2-3.78-.755-1.237-1.649-2.269-2.405-3.368a65.8,65.8,0,0,0-5.5-6.736l-.344-.413-.206-.206-.069-.137c-.068-.069.275.344.069.137l-.756-.687-1.443-1.443c-.962-.894-1.855-1.924-2.887-2.75A78.555,78.555,0,0,0,90.348,11.058,72.688,72.688,0,0,0,64.711,7q-2.99.206-5.774.412c-1.855.344-3.574.687-5.292.963-1.718.344-3.3.894-4.811,1.305-.756.206-1.513.482-2.268.688-.687.274-1.375.618-2.063.894-1.305.618-2.612,1.168-3.78,1.649-1.169.55-2.2,1.237-3.162,1.787s-1.855,1.1-2.681,1.581-1.512,1.1-2.131,1.513c-2.542,1.787-3.849,2.818-3.849,2.818" transform="translate(0 0)" fill="#58a7aa"/><path d="M77.55,15.514s1.031.138,2.887.345a31.845,31.845,0,0,1,3.505.618,14.613,14.613,0,0,1,2.2.55c.755.274,1.581.481,2.474.756a47.466,47.466,0,0,1,11.959,5.7,53.189,53.189,0,0,1,13.06,12.165,50.068,50.068,0,0,1,5.429,9.21c.413.894.825,1.719,1.169,2.613s.618,1.855.962,2.818a53.135,53.135,0,0,1,1.582,5.911c.205,1.031.274,2.062.481,3.161l.206,1.581.068.824c.069-.344-.068.619-.068.55v.55a30.069,30.069,0,0,1,0,6.118c-.138,1.237-.206,2.542-.413,3.711l-.619,3.505a45.393,45.393,0,0,1-2.131,7.011,49.157,49.157,0,0,1-7.629,13.2,53.8,53.8,0,0,1-5.5,5.7,45.919,45.919,0,0,1-6.46,4.95,56.689,56.689,0,0,1-7.286,3.849,26.8,26.8,0,0,1-3.918,1.443,39.355,39.355,0,0,1-4.056,1.168c-1.374.275-2.749.619-4.123.825-1.375.274-2.819.274-4.193.412a57.8,57.8,0,0,1-8.454,0l-.894-.137h-.275l-.344-.069-.756-.137-1.512-.206-.756-.137-.344-.069-.55-.137-2.337-.55L58.58,112.7l-1.169-.344-1.031-.344-3.918-1.581a38.855,38.855,0,0,1-3.781-1.925,30.572,30.572,0,0,1-3.574-2.131,59.136,59.136,0,0,1-6.529-5.086,49.021,49.021,0,0,1-5.429-5.979,52.513,52.513,0,0,1-4.4-6.6,49.725,49.725,0,0,1-5.155-14.3,47.612,47.612,0,0,1-.618-14.228,50.738,50.738,0,0,1,1.1-6.6l.068-.412.069-.206v-.069c0,.069.137-.894.068-.55l.206-.618.413-1.306.413-1.237c.137-.413.274-.824.481-1.374a39.177,39.177,0,0,1,2.612-5.911c.482-.894.963-1.718,1.444-2.543.55-.824,1.1-1.581,1.65-2.405a51.063,51.063,0,0,1,6.942-8.111,52.354,52.354,0,0,1,14.915-9.691A48.057,48.057,0,0,1,66.14,15.653a25.542,25.542,0,0,0,2.543-.344c.824-.069,1.581-.069,2.268-.138a20.618,20.618,0,0,1,3.574,0c1.993.275,3.024.344,3.024.344m-.206,1.856s-.963,0-2.818-.069a20.9,20.9,0,0,0-3.437.138c-.687.068-1.374.068-2.131.205s-1.581.275-2.405.413A39.552,39.552,0,0,0,42.633,32.492,40.716,40.716,0,0,0,34.8,49.468c-.206.825-.274,1.719-.412,2.543-.069.825-.275,1.856-.275,2.543a44.1,44.1,0,0,0,0,5.223,37.66,37.66,0,0,0,2.131,10.516,40.53,40.53,0,0,0,5.087,9.829A43.687,43.687,0,0,0,49.095,88.3a42.112,42.112,0,0,0,9.966,5.7,41.786,41.786,0,0,0,5.5,1.65,40.385,40.385,0,0,0,5.773.962A43.3,43.3,0,0,0,81.879,96a42.093,42.093,0,0,0,10.792-3.85,41.87,41.87,0,0,0,9.141-6.736,41.5,41.5,0,0,0,6.736-8.8,39.491,39.491,0,0,0,3.918-9.966,43.5,43.5,0,0,0,.963-5.224,15.383,15.383,0,0,0,.137-2.543c0-.824.137-1.718.069-2.542A39.951,39.951,0,0,0,98.65,25.824a39.647,39.647,0,0,0-10.723-6.117q-1.237-.413-2.268-.825c-.756-.205-1.443-.344-2.062-.549a19.592,19.592,0,0,0-3.368-.688c-1.924-.137-2.887-.274-2.887-.274" transform="translate(-0.604 -0.402)" fill="#b4d0a2"/></g></svg>