<svg xmlns="http://www.w3.org/2000/svg" width="2142.486" height="2179.712" viewBox="0 0 2142.486 2179.712"><g transform="translate(0 0)" opacity="0.15"><path d="M1135.973,29.5s20.5,5.126,59.474,14.36c9.22,3.064,20.5,4.095,32.8,8.189,11.282,4.109,24.611,8.2,37.941,13.329s28.706,9.235,44.083,16.408,31.784,14.36,48.192,22.564c67.678,32.8,147.64,79.977,224.539,151.749s154.827,166.1,213.271,286.06c57.412,119.95,94.322,264.527,93.306,421.4,1.016,19.471-2.048,38.958-3.079,59.46l-2.047,29.737-1.031,15.377-3.078,17.439c-7.173,37.941-10.251,73.82-24.6,116.886-6.156,20.5-11.282,43.067-19.485,62.538s-16.408,39.989-23.581,59.474c-7.173,20.5-18.455,38.958-28.706,58.443s-19.486,39.988-32.815,57.412c-46.145,76.9-106.635,145.593-175.33,208.145-69.725,61.507-150.718,112.777-237.868,152.766-88.18,38.957-182.5,64.6-279.918,76.9-97.4,11.282-196.849,4.094-293.233-12.3l-21.533-5.125L727.9,1856.61l-30.768-8.2c-11.268-3.078-19.471-4.095-32.8-9.22l-36.91-13.33-36.91-13.329-18.455-7.187-16.408-8.189c-22.564-10.266-44.1-22.564-65.616-32.815-85.1-49.224-163.031-108.683-228.648-178.408-64.6-70.742-118.934-149.687-159.953-232.742-38.957-85.1-67.664-172.252-80.993-260.432-12.313-88.18-15.391-175.33-3.078-259.4,3.078-42.036,14.346-82.024,22.55-122.012l4.109-17.424,4.095-13.329,9.235-26.659c6.142-18.455,11.268-34.863,19.471-53.318,17.439-36.91,30.768-74.851,51.27-106.636,9.235-16.408,18.455-32.815,27.69-48.192,10.251-15.377,21.519-29.737,31.785-45.114,41-59.46,91.244-109.714,139.436-154.828C427.48,157.674,535.147,101.278,634.595,65.384c99.463-36.91,191.738-49.209,265.558-53.3,18.455-1.031,36.91-1.031,53.318-2.062,16.408,0,32.8,1.031,47.161,2.062s27.69,2.047,39.988,2.047a245.806,245.806,0,0,1,32.815,5.126c41,7.173,62.538,10.251,62.538,10.251m0,0s-21.533-3.078-60.491-8.2c-10.251-1.031-20.5-3.078-32.815-4.095-12.3,0-25.628-1.031-39.988-2.062-14.346,0-29.737-2.047-47.161-1.016-16.408,1.016-33.832,2.047-53.318,4.095C828.38,25.41,737.121,41.8,642.8,84.87,548.462,126.906,450.044,192.536,366.99,286.859,327,335.051,288.044,386.307,258.307,445.781c-7.173,14.36-14.36,29.737-22.564,44.083-6.142,15.391-12.3,31.785-18.455,47.176-14.346,31.785-19.471,63.569-29.723,95.353-4.109,15.377-7.187,35.879-10.266,53.318l-5.126,27.675-2.047,14.36c-1.016,3.078,1.031-3.078,0-1.031V738c-2.047,34.863-6.157,69.726-3.078,105.6,0,70.742,15.391,141.5,34.863,211.209,6.156,17.439,11.282,33.846,17.439,51.27s14.346,32.815,21.519,50.239l11.282,24.612,13.329,23.581c9.235,15.377,17.439,31.785,26.659,47.161,38.957,61.522,87.15,116.887,139.451,167.126l42.036,34.863c13.329,12.3,29.737,21.533,44.083,31.785l22.564,16.408c7.173,5.125,15.377,9.22,23.581,14.346,16.408,9.235,30.753,18.469,47.161,26.659,16.408,7.187,33.832,14.36,49.208,22.564l12.313,6.156,12.3,4.095,23.581,8.2L732,1593.1c7.188,3.078,19.486,5.14,29.737,8.2l30.754,8.2,15.391,4.109,8.2,2.047,4.095,1.031h2.047c-2.047,0,8.2,2.047-4.095-1.031a909.516,909.516,0,0,0,217.366,14.36c18.455-1.031,35.879-4.109,54.334-6.156,9.235-1.031,18.455-2.047,26.659-4.109l26.659-6.142c17.439-4.109,35.893-6.156,53.318-12.313l52.287-16.393c67.678-25.643,133.294-58.444,193.785-100.494,15.391-10.251,28.721-22.549,43.067-32.8l21.533-16.408,19.486-18.455c12.3-12.3,27.675-24.612,38.957-37.941,12.3-13.329,23.58-26.659,35.879-41,13.329-13.329,21.533-28.706,32.816-43.066,10.251-14.36,22.564-28.706,30.768-44.083q13.83-23.087,27.675-46.145c9.235-15.377,14.36-30.753,22.564-46.145,15.377-27.675,26.658-67.663,38.957-103.557l2.048-7.173,1.031-3.078,1.016-2.047c0-1.031-1.016,5.126,0,2.047l3.078-12.3,6.156-25.628c3.079-17.438,9.221-33.846,11.282-51.27,22.55-136.373,9.22-272.73-30.768-390.648s-105.6-217.366-176.346-292.217c-69.726-76.9-147.655-126.107-213.271-162-16.408-8.189-32.8-16.393-47.161-23.581-15.377-7.173-29.737-11.268-44.083-16.393-13.329-5.14-26.659-10.266-37.941-14.36s-22.564-6.157-32.816-9.235c-39.988-11.268-60.491-17.424-60.491-17.424" transform="translate(128.743 135.459)" fill="#62c6ca"/><path d="M225.923,210.644s15.377-11.268,45.114-32.8c8.2-5.126,14.346-11.282,25.628-18.455,12.3-7.187,25.628-15.391,39.988-23.581s29.737-18.47,46.13-26.659c16.408-7.187,32.815-15.391,51.27-23.6,72.8-31.784,165.079-62.538,274.792-72.789a921.954,921.954,0,0,1,361.927,34.863c127.138,38.957,256.323,111.761,366.037,217.366,14.36,12.3,25.628,27.675,38.957,42.036l19.486,21.533,9.235,10.251,4.095,5.126,1.031,1.031,2.047,3.064,4.095,5.14c20.517,28.706,39.988,51.256,61.521,91.244,10.252,17.439,22.564,35.894,30.754,54.349s16.408,35.879,25.643,54.334c9.22,17.439,14.345,37.941,21.533,56.4,6.142,19.486,14.346,37.941,18.455,58.443,22.55,78.946,30.753,160.97,30.753,244.024-1.016,83.055-15.377,166.1-38.958,247.1a913.581,913.581,0,0,1-109.713,227.617c-48.192,69.725-106.636,132.263-170.2,186.612l-49.209,35.879c-14.36,11.282-33.832,22.564-52.287,33.832-36.91,23.581-75.882,39.988-113.808,57.427-77.929,30.754-157.906,51.256-239.93,59.459-80.993,6.156-162,3.079-240.946-11.282-77.929-16.393-152.78-39.974-220.444-75.867-136.373-69.726-247.1-176.346-319.892-289.139C73.143,1263.64,35.2,1138.55,23.934,1019.615A826.885,826.885,0,0,1,58.8,700.755C86.472,609.5,130.57,536.692,169.527,481.327,179.778,468,189,454.668,198.233,442.37s19.486-21.533,28.706-31.784c9.235-9.235,17.439-18.455,24.612-26.659s15.377-14.36,22.55-20.5c26.659-24.612,41.019-36.91,41.019-36.91Zm89.2,114.839L276.163,364.44c-6.157,6.157-13.329,13.329-20.517,21.533s-14.346,18.455-22.55,27.69c-8.2,10.251-17.439,20.5-25.628,32.8s-16.408,25.642-25.642,39.988c-34.863,56.4-72.789,129.2-95.353,219.427-22.55,89.2-32.8,194.8-16.408,306.563,16.408,110.73,62.553,228.648,134.325,329.127,8.2,13.329,20.5,25.628,30.754,38.957l16.408,19.486,8.2,10.251c1.016,2.047-1.031-1.031,0,0l1.016,1.031,2.062,2.047,4.095,4.095c23.581,22.564,45.114,47.176,71.773,66.647,50.24,43.067,109.714,76.9,171.235,105.6,62.538,27.69,129.185,45.114,197.88,55.365,68.694,9.235,139.436,7.188,209.162-2.047,69.726-11.268,137.389-32.8,200.958-62.538,30.768-16.408,62.553-32.815,89.212-52.287,14.346-9.235,27.675-17.439,43.052-30.768l42.05-34.863c50.239-49.209,95.353-102.526,131.232-162,33.832-60.491,60.491-123.029,77.929-189.676,15.377-65.616,22.55-133.294,19.471-198.911-6.142-64.6-16.393-129.185-36.91-188.659-4.095-15.377-11.268-29.737-17.424-44.083s-11.282-28.721-19.486-42.05c-7.173-13.315-14.346-26.644-21.533-41-7.173-13.33-15.377-23.581-23.58-35.894-12.3-21.519-37.927-50.239-58.443-75.867l-4.095-5.126-2.047-2.047-1.031-1.031c-1.031-1.016,6.156,7.173,2.047,3.078l-8.2-7.173L1314.8,456.73c-10.251-10.266-19.486-20.517-30.753-29.737-87.15-73.82-184.565-121-279.918-144.576-95.353-22.55-186.6-21.533-263.5-9.22-77.929,11.268-141.5,38.957-190.721,63.569-12.3,6.142-23.581,12.3-34.848,18.455-10.266,6.142-17.439,12.3-25.643,17.424S474.042,382.9,466.87,387s-16.408,12.3-22.564,17.424c-27.675,22.564-43.052,34.863-43.052,34.863Z" transform="translate(282.108 107.078)" fill="#b3dfde"/><path d="M419.85,293.116s19.486-15.377,56.4-44.083c9.235-7.173,19.486-15.377,30.754-23.581,12.313-8.2,25.643-16.408,39.988-26.659,14.36-9.235,29.737-20.5,47.176-30.754,17.424-9.235,35.879-19.486,55.365-29.737,10.251-5.126,19.471-11.282,29.723-16.408s21.533-9.235,32.815-14.36c22.564-10.251,46.145-22.55,71.773-31.784s52.287-18.455,79.977-27.675c28.706-8.2,58.443-15.377,89.2-23.581,124.06-26.659,272.731-36.91,430.636-3.078,156.875,34.863,320.923,117.9,454.217,247.1,17.424,15.377,31.785,33.832,48.178,51.256l23.6,26.659,11.267,13.329,4.109,5.126,1.016,2.062,2.062,3.064,5.126,7.187c24.6,36.91,51.255,70.742,74.836,116.887,51.271,87.149,81.007,178.394,105.619,274.778,23.58,96.384,29.722,195.833,28.706,295.3-3.078,99.448-18.455,199.927-44.1,297.342l-22.55,72.789c-7.173,24.611-19.486,47.161-28.706,70.742l-14.36,35.894c-5.126,11.282-11.282,22.55-17.425,33.832-12.312,22.564-23.581,46.145-36.91,67.678l-42.05,65.616c-13.315,22.55-30.754,41-46.13,62.538-15.377,20.516-31.784,42.05-50.239,60.5l-26.659,28.706-13.329,14.346-7.173,7.187-3.078,4.095-2.047,2.047c-1.031,1.031,1.016,0-4.109,3.078l-56.4,49.223c-17.424,16.393-39.988,32.8-62.538,48.177l-33.832,23.58a308.492,308.492,0,0,1-33.846,21.534l-66.633,38.971c-96.385,46.13-198.911,79.977-303.5,96.37-105.6,14.361-212.24,15.391-316.828,1.031-103.543-16.408-205.053-44.083-298.359-87.15-92.275-43.066-180.456-96.384-254.276-163.032-38.957-30.753-70.742-68.694-104.588-103.557l-6.142-6.142-3.078-3.078-1.031-2.047-4.095-5.126-10.251-13.33-19.486-26.659-19.486-25.642c-6.142-9.22-13.329-16.408-19.471-27.676-12.313-20.516-25.642-42.035-37.941-62.552-6.157-10.251-12.3-20.5-17.439-30.754l-14.346-30.768c-9.235-20.5-19.486-41-28.706-61.507-8.2-20.517-14.36-42.036-21.533-63.569-16.408-41.019-23.581-84.086-32.815-125.091-5.126-20.5-6.142-42.036-9.22-62.552q-3.093-30.753-6.157-61.507c-9.235-162,24.612-308.624,69.725-426.542,12.3-29.723,24.6-57.412,36.91-84.071,13.329-25.628,26.659-51.27,39.988-74.851,12.3-23.581,28.706-45.114,42.036-65.616,6.157-10.251,13.329-20.5,19.486-30.754q10.759-13.852,21.519-27.69c13.329-17.424,26.659-34.863,37.941-50.239,12.3-15.377,25.628-28.706,36.91-41.019s22.564-24.6,31.784-34.848c10.251-10.266,20.5-19.486,28.706-27.69,34.863-33.832,53.318-51.27,53.318-51.27m11.282,14.36s-17.424,17.424-51.27,50.239c-8.2,8.2-18.455,16.408-27.675,27.69s-18.455,23.581-29.737,35.879c-10.251,13.329-22.564,26.659-32.815,43.067s-21.533,33.832-32.8,52.287c-5.126,9.235-11.282,18.455-17.439,28.706-5.126,10.251-10.251,20.517-15.377,31.785-9.22,21.533-21.533,43.067-29.737,67.678s-17.424,49.209-26.659,75.867c-7.173,26.659-12.3,55.365-19.471,84.071-21.533,115.87-22.564,249.165,4.095,385.523,15.377,67.678,33.832,137.389,63.569,206.083,7.173,17.439,14.36,33.846,21.533,51.271,9.235,16.408,17.424,32.815,26.659,50.239,16.408,35.894,38.957,62.553,58.443,94.337,4.095,7.173,11.282,16.393,18.455,24.6l20.5,25.643,20.517,25.628,10.251,13.33c3.078,4.095-3.078-3.078-2.062-2.047l1.031,1.016,3.078,3.078,5.126,5.126c28.706,28.706,54.334,59.474,87.15,85.1,60.491,55.365,132.263,99.462,207.114,140.467,75.867,38.972,159.953,64.6,246.072,84.086,87.149,16.393,177.377,19.471,267.6,13.315l67.678-9.22c22.55-2.047,45.114-9.235,67.664-13.329l33.846-7.173c11.268-3.078,21.519-7.188,32.8-10.251,21.533-7.187,44.1-13.329,66.647-21.533l64.6-26.659c11.267-4.11,21.533-9.235,31.784-14.36l30.753-16.408c39.988-18.455,83.055-51.256,124.059-78.946l53.318-44.083c19.486-14.36,35.894-31.785,52.3-49.223,16.393-18.455,34.848-33.832,48.178-53.318l44.1-57.412c53.318-79.977,96.37-168.157,123.029-260.432,25.642-92.275,37.941-188.659,32.815-281.951-1.031-23.6-5.125-46.145-7.173-69.725-1.031-11.282-2.062-22.564-4.109-34.863l-8.2-33.832c-5.126-22.564-9.22-45.114-16.393-66.647s-14.36-43.067-21.533-64.6c-6.156-21.533-18.455-41-26.659-61.521-9.235-19.471-17.438-39.988-29.737-58.443-11.282-18.455-21.533-36.91-32.815-56.381-11.268-18.455-24.6-33.846-35.879-50.24-20.5-32.815-53.318-66.647-82.024-100.479l-5.126-6.156-3.078-3.078-1.031-2.047c-1.016-1.031,4.109,5.126,1.031,2.047l-11.282-10.251-21.533-21.533c-14.346-13.329-27.675-28.706-43.066-41.019a1171.833,1171.833,0,0,0-384.492-223.508c-132.263-46.145-264.527-63.569-382.43-60.491q-44.606,3.071-86.133,6.142c-27.675,5.126-53.318,10.251-78.946,14.36-25.628,5.126-49.223,13.329-71.773,19.471-11.282,3.078-22.564,7.187-33.832,10.266-10.251,4.095-20.517,9.22-30.768,13.329-19.471,9.22-38.958,17.424-56.382,24.6-17.439,8.2-32.815,18.455-47.176,26.659s-27.675,16.408-39.988,23.581-22.55,16.408-31.784,22.564c-37.926,26.659-57.412,42.036-57.412,42.036" transform="translate(0 0)" fill="#58a7aa"/><path d="M841.016,21.4s15.377,2.062,43.066,5.14c14.346,1.016,31.785,5.126,52.287,9.22,10.251,2.047,21.533,4.095,32.815,8.2s23.581,7.173,36.91,11.282c51.256,16.393,113.808,42.036,178.394,85.1S1317.783,240.825,1379.3,321.818c28.706,41.019,59.46,86.133,80.993,137.389,6.156,13.329,12.313,25.643,17.438,38.972s9.22,27.675,14.346,42.036c11.282,27.675,15.391,58.443,23.6,88.18,3.064,15.377,4.095,30.754,7.173,47.161l3.078,23.581,1.016,12.3c1.031-5.126-1.016,9.234-1.016,8.2v8.2c1.016,28.706,5.125,50.239,0,91.259-2.062,18.455-3.078,37.926-6.157,55.365s-6.156,34.863-9.235,52.287c-7.173,34.863-18.455,69.725-31.785,104.588-25.628,69.711-65.616,135.342-113.808,196.849-25.628,29.737-52.287,59.474-82.024,85.1-28.706,27.69-62.538,51.27-96.37,73.834-34.863,20.5-70.757,42.036-108.683,57.413-19.486,8.2-37.941,16.408-58.443,21.533-19.486,6.142-39.988,13.33-60.505,17.424s-41,9.235-61.507,12.313c-20.517,4.094-42.05,4.094-62.552,6.142-42.036,4.109-84.072,2.047-126.107,0l-13.329-2.047h-4.109l-5.125-1.031-11.282-2.047-22.55-3.078-11.282-2.047-5.125-1.031-8.2-2.047-34.863-8.2-34.848-9.22-17.439-5.126-15.377-5.125-58.443-23.581c-19.486-8.2-37.941-18.455-56.4-28.721a456.057,456.057,0,0,1-53.318-31.784c-34.863-22.55-66.647-49.209-97.4-75.868-29.737-28.706-57.412-57.412-80.993-89.2-24.612-30.768-46.145-64.6-65.631-98.432-36.91-69.726-63.569-140.467-76.9-213.271s-17.424-144.562-9.22-212.24c2.047-33.832,10.251-66.647,16.408-98.431l1.016-6.142,1.031-3.078v-1.031c0,1.031,2.047-13.33,1.016-8.2l3.078-9.22,6.157-19.486,6.157-18.455c2.047-6.156,4.095-12.3,7.173-20.5,12.3-30.768,23.581-63.569,38.957-88.18,7.187-13.329,14.36-25.628,21.533-37.941,8.2-12.3,16.408-23.581,24.612-35.879,30.754-47.161,68.694-86.133,103.557-121C331.434,151.613,409.363,106.5,480.1,75.746A716.88,716.88,0,0,1,670.812,23.459a381.026,381.026,0,0,0,37.941-5.126c12.3-1.031,23.58-1.031,33.832-2.062,20.5-1.016,38.957-2.047,53.318,0,29.737,4.109,45.114,5.126,45.114,5.126m-3.078,27.69s-14.36,0-42.036-1.031c-13.329-1.016-30.768,0-51.27,2.062-10.251,1.016-20.5,1.016-31.785,3.064s-23.581,4.109-35.879,6.156C626.729,69.589,565.207,86,502.655,120.86s-128.154,84.071-182.5,153.8c-54.334,68.695-97.4,156.875-116.887,253.245-3.078,12.313-4.095,25.643-6.142,37.941-1.031,12.313-4.109,27.69-4.109,37.941,0,25.628-3.078,51.27,0,77.915,2.047,52.3,14.36,105.619,31.784,156.875S268.9,939.052,300.68,985.2a651.7,651.7,0,0,0,115.856,122.012,628.212,628.212,0,0,0,148.671,85.1c27.675,9.22,54.334,19.486,82.024,24.612,25.628,8.2,59.46,10.251,86.119,14.346,57.427,4.109,115.87,2.062,172.252-9.22,56.4-12.313,110.745-30.768,160.984-57.427,49.208-27.675,96.37-60.491,136.358-100.479,38.972-39.988,73.834-83.04,100.479-131.232,25.643-47.161,47.176-98.432,58.443-148.671,7.187-24.612,10.266-52.287,14.36-77.929,2.047-11.282,2.047-25.628,2.047-37.941s2.047-25.628,1.031-37.927c-2.047-100.479-29.737-193.785-70.742-271.714-42.05-77.915-97.415-138.42-152.78-183.534S1043,102.4,995.829,83.95Q977.381,77.786,962,71.637c-11.282-3.064-21.533-5.126-30.754-8.189C911.758,58.322,895.35,54.212,881,53.182c-28.706-2.047-43.067-4.095-43.067-4.095" transform="translate(306.813 204.041)" fill="#b4d0a2"/></g></svg>